<svg xmlns="http://www.w3.org/2000/svg" xmlns:xlink="http://www.w3.org/1999/xlink" width="375" viewBox="0 0 375 375" height="375" version="1.0"><defs><g id="i"><path d="M 5.171875 -8.578125 L 5.171875 -2.640625 C 5.171875 -1.785156 4.929688 -1.117188 4.453125 -0.640625 C 3.984375 -0.171875 3.332031 0.0625 2.5 0.0625 C 1.488281 0.0625 0.644531 -0.347656 -0.03125 -1.171875 L 0.65625 -2.28125 C 1.238281 -1.644531 1.847656 -1.328125 2.484375 -1.328125 C 2.878906 -1.328125 3.179688 -1.441406 3.390625 -1.671875 C 3.609375 -1.910156 3.71875 -2.25 3.71875 -2.6875 L 3.71875 -7.28125 L 0.75 -7.28125 L 0.75 -8.578125 Z M 5.171875 -8.578125"/></g><g id="j"><path d="M 8.421875 -8.578125 L 8.421875 -3.546875 C 8.421875 -2.429688 8.085938 -1.550781 7.421875 -0.90625 C 6.765625 -0.257812 5.851562 0.0625 4.6875 0.0625 C 3.53125 0.0625 2.617188 -0.257812 1.953125 -0.90625 C 1.285156 -1.550781 0.953125 -2.429688 0.953125 -3.546875 L 0.953125 -8.578125 L 2.40625 -8.578125 L 2.40625 -3.546875 C 2.40625 -2.828125 2.609375 -2.257812 3.015625 -1.84375 C 3.429688 -1.4375 3.992188 -1.234375 4.703125 -1.234375 C 5.398438 -1.234375 5.953125 -1.4375 6.359375 -1.84375 C 6.765625 -2.257812 6.96875 -2.828125 6.96875 -3.546875 L 6.96875 -8.578125 Z M 8.421875 -8.578125"/></g><g id="k"><path d="M 8.5625 0 L 7.140625 0 L 2.578125 -6.15625 L 2.578125 0 L 1.125 0 L 1.125 -8.578125 L 2.546875 -8.578125 L 7.140625 -2.40625 L 7.140625 -8.578125 L 8.5625 -8.578125 Z M 8.5625 0"/></g><g id="l"><path d="M 2.578125 0 L 1.125 0 L 1.125 -8.578125 L 2.578125 -8.578125 Z M 2.578125 0"/></g><g id="m"><path d="M 1.71875 -7.359375 C 2.59375 -8.191406 3.671875 -8.609375 4.953125 -8.609375 C 6.242188 -8.609375 7.320312 -8.191406 8.1875 -7.359375 C 9.0625 -6.535156 9.5 -5.507812 9.5 -4.28125 C 9.5 -3.0625 9.0625 -2.03125 8.1875 -1.1875 C 7.320312 -0.351562 6.242188 0.0625 4.953125 0.0625 C 3.671875 0.0625 2.59375 -0.351562 1.71875 -1.1875 C 0.851562 -2.03125 0.421875 -3.0625 0.421875 -4.28125 C 0.421875 -5.507812 0.851562 -6.535156 1.71875 -7.359375 Z M 4.96875 -7.3125 C 4.125 -7.3125 3.398438 -7.019531 2.796875 -6.4375 C 2.191406 -5.851562 1.890625 -5.132812 1.890625 -4.28125 C 1.890625 -3.4375 2.191406 -2.71875 2.796875 -2.125 C 3.410156 -1.53125 4.132812 -1.234375 4.96875 -1.234375 C 5.8125 -1.234375 6.53125 -1.53125 7.125 -2.125 C 7.726562 -2.71875 8.03125 -3.4375 8.03125 -4.28125 C 8.03125 -5.132812 7.726562 -5.851562 7.125 -6.4375 C 6.53125 -7.019531 5.8125 -7.3125 4.96875 -7.3125 Z M 4.96875 -7.3125"/></g><g id="n"><path d="M 6.5625 0 L 5 -2.59375 C 4.914062 -2.582031 4.785156 -2.578125 4.609375 -2.578125 L 2.578125 -2.578125 L 2.578125 0 L 1.125 0 L 1.125 -8.578125 L 4.609375 -8.578125 C 5.703125 -8.578125 6.550781 -8.320312 7.15625 -7.8125 C 7.757812 -7.300781 8.0625 -6.578125 8.0625 -5.640625 C 8.0625 -4.960938 7.90625 -4.382812 7.59375 -3.90625 C 7.289062 -3.4375 6.851562 -3.085938 6.28125 -2.859375 L 8.203125 0 Z M 2.578125 -3.890625 L 4.609375 -3.890625 C 5.992188 -3.890625 6.6875 -4.460938 6.6875 -5.609375 C 6.6875 -6.722656 5.992188 -7.28125 4.609375 -7.28125 L 2.578125 -7.28125 Z M 2.578125 -3.890625"/></g><g id="p"><path d="M 1.125 -8.578125 L 4.640625 -8.578125 C 5.921875 -8.578125 6.976562 -8.171875 7.8125 -7.359375 C 8.65625 -6.554688 9.078125 -5.53125 9.078125 -4.28125 C 9.078125 -3.039062 8.65625 -2.015625 7.8125 -1.203125 C 6.96875 -0.398438 5.898438 0 4.609375 0 L 1.125 0 Z M 2.578125 -7.28125 L 2.578125 -1.296875 L 4.671875 -1.296875 C 5.515625 -1.296875 6.21875 -1.578125 6.78125 -2.140625 C 7.34375 -2.703125 7.625 -3.414062 7.625 -4.28125 C 7.625 -5.144531 7.332031 -5.859375 6.75 -6.421875 C 6.175781 -6.992188 5.46875 -7.28125 4.625 -7.28125 Z M 2.578125 -7.28125"/></g><g id="q"><path d="M 7.25 -7.28125 L 2.578125 -7.28125 L 2.578125 -4.96875 L 6.765625 -4.96875 L 6.765625 -3.65625 L 2.578125 -3.65625 L 2.578125 -1.296875 L 7.40625 -1.296875 L 7.40625 0 L 1.125 0 L 1.125 -8.578125 L 7.25 -8.578125 Z M 7.25 -7.28125"/></g><g id="r"><path d="M 4.953125 0 L 3.453125 0 L 0.03125 -8.578125 L 1.59375 -8.578125 L 4.234375 -1.609375 L 6.90625 -8.578125 L 8.421875 -8.578125 Z M 4.953125 0"/></g><g id="s"><path d="M 1.125 -8.578125 L 4.84375 -8.578125 C 5.738281 -8.578125 6.441406 -8.382812 6.953125 -8 C 7.472656 -7.625 7.734375 -7.101562 7.734375 -6.4375 C 7.734375 -5.945312 7.597656 -5.53125 7.328125 -5.1875 C 7.054688 -4.851562 6.6875 -4.628906 6.21875 -4.515625 C 6.789062 -4.421875 7.238281 -4.179688 7.5625 -3.796875 C 7.894531 -3.410156 8.0625 -2.929688 8.0625 -2.359375 C 8.0625 -1.617188 7.78125 -1.039062 7.21875 -0.625 C 6.664062 -0.207031 5.90625 0 4.9375 0 L 1.125 0 Z M 2.578125 -7.28125 L 2.578125 -5.015625 L 4.78125 -5.015625 C 5.238281 -5.015625 5.597656 -5.117188 5.859375 -5.328125 C 6.117188 -5.535156 6.25 -5.816406 6.25 -6.171875 C 6.25 -6.535156 6.117188 -6.8125 5.859375 -7 C 5.597656 -7.1875 5.238281 -7.28125 4.78125 -7.28125 Z M 2.578125 -3.75 L 2.578125 -1.28125 L 4.78125 -1.28125 C 5.351562 -1.28125 5.796875 -1.390625 6.109375 -1.609375 C 6.421875 -1.828125 6.578125 -2.132812 6.578125 -2.53125 C 6.578125 -2.90625 6.414062 -3.203125 6.09375 -3.421875 C 5.78125 -3.640625 5.34375 -3.75 4.78125 -3.75 Z M 2.578125 -3.75"/></g><g id="t"><path d="M 6.65625 -1.9375 L 2.34375 -1.9375 L 1.515625 0 L 0.015625 0 L 3.796875 -8.578125 L 5.28125 -8.578125 L 9.03125 0 L 7.484375 0 Z M 6.109375 -3.21875 L 4.5 -7.03125 L 2.875 -3.21875 Z M 6.109375 -3.21875"/></g><g id="u"><path d="M 1.125 -8.578125 L 4.546875 -8.578125 C 5.617188 -8.578125 6.453125 -8.320312 7.046875 -7.8125 C 7.640625 -7.300781 7.9375 -6.578125 7.9375 -5.640625 C 7.9375 -4.671875 7.640625 -3.914062 7.046875 -3.375 C 6.453125 -2.84375 5.617188 -2.578125 4.546875 -2.578125 L 2.578125 -2.578125 L 2.578125 0 L 1.125 0 Z M 2.578125 -7.28125 L 2.578125 -3.890625 L 4.484375 -3.890625 C 5.859375 -3.890625 6.546875 -4.460938 6.546875 -5.609375 C 6.546875 -6.722656 5.859375 -7.28125 4.484375 -7.28125 Z M 2.578125 -7.28125"/></g><g id="b"><path d="M 15.875 -12.726562 L 15.875 -29.609375 L 3.695312 -29.609375 L 3.695312 -25.746094 L 11.632812 -25.746094 L 11.632812 -12.726562 C 11.632812 -7.222656 9.367188 -3.78125 1.804688 -3.78125 C 1.34375 -3.78125 0.839844 -3.78125 0.335938 -3.820312 L 0.335938 0.167969 C 0.757812 0.167969 1.21875 0.210938 1.597656 0.210938 C 11.96875 0.210938 15.875 -4.324219 15.875 -12.726562 Z M 15.875 -12.726562"/></g><g id="c"><path d="M 26.671875 -11.339844 C 26.671875 -19.152344 20.621094 -23.101562 14.488281 -23.101562 C 8.316406 -23.101562 2.183594 -19.195312 2.183594 -11.339844 C 2.183594 -3.527344 8.273438 0.421875 14.363281 0.421875 C 20.539062 0.421875 26.671875 -3.484375 26.671875 -11.339844 Z M 6.300781 -11.339844 C 6.300781 -16.757812 10.375 -19.445312 14.488281 -19.445312 C 18.523438 -19.445312 22.597656 -16.714844 22.597656 -11.339844 C 22.597656 -6.007812 18.523438 -3.277344 14.449219 -3.277344 C 10.375 -3.277344 6.300781 -5.964844 6.300781 -11.339844 Z M 6.300781 -11.339844"/></g><g id="d"><path d="M 7.390625 -19.78125 L 7.390625 -29.398438 L 3.277344 -29.398438 L 3.277344 0 L 7.390625 0 L 7.390625 -3.066406 C 9.03125 -0.589844 12.136719 0.335938 14.953125 0.378906 C 22.890625 0.378906 26.710938 -5.207031 26.710938 -11.464844 C 26.710938 -17.597656 22.722656 -23.101562 15.035156 -23.101562 C 12.222656 -23.101562 9.367188 -22.46875 7.390625 -19.78125 Z M 7.390625 -11.382812 C 7.390625 -16.800781 11.214844 -19.488281 15.035156 -19.488281 C 20.074219 -19.488281 22.597656 -15.457031 22.597656 -11.382812 C 22.597656 -7.265625 20.035156 -3.277344 14.992188 -3.277344 C 11.214844 -3.277344 7.390625 -5.921875 7.390625 -11.382812 Z M 7.390625 -11.382812"/></g><g id="e"><path d="M 20.285156 -17.722656 L 7.855469 -17.722656 L 7.855469 -29.652344 L 3.613281 -29.652344 L 3.613281 0 L 7.855469 0 L 7.855469 -13.523438 L 20.285156 -13.523438 L 20.285156 0 L 24.570312 0 L 24.570312 -29.652344 L 20.285156 -29.652344 Z M 20.285156 -17.722656"/></g><g id="f"><path d="M 26.753906 0 L 26.753906 -22.722656 L 22.636719 -22.722656 L 22.679688 -19.699219 C 20.664062 -22.429688 17.261719 -23.101562 14.449219 -23.101562 C 6.761719 -23.101562 2.308594 -17.597656 2.308594 -11.464844 C 2.308594 -5.207031 6.59375 0.378906 14.53125 0.378906 C 17.347656 0.335938 21 -0.589844 22.636719 -3.066406 L 22.636719 0 Z M 22.636719 -11.382812 C 22.636719 -5.921875 18.226562 -3.277344 14.449219 -3.277344 C 9.40625 -3.277344 6.425781 -7.183594 6.425781 -11.464844 C 6.425781 -15.960938 9.449219 -19.488281 14.449219 -19.488281 C 18.3125 -19.488281 22.636719 -16.800781 22.636719 -11.382812 Z M 22.636719 -11.382812"/></g><g id="g"><path d="M 25.410156 -8.652344 L 21.167969 -8.652344 C 20.160156 -5.039062 17.136719 -3.277344 14.027344 -3.277344 C 10.121094 -3.277344 6.257812 -5.921875 6.257812 -11.382812 C 6.257812 -16.800781 10.164062 -19.445312 13.984375 -19.445312 C 17.09375 -19.445312 20.160156 -17.683594 21.167969 -14.070312 L 25.410156 -14.070312 C 24.277344 -20.117188 19.109375 -23.101562 13.945312 -23.101562 C 8.023438 -23.101562 2.140625 -19.234375 2.140625 -11.382812 C 2.140625 -3.570312 7.980469 0.335938 13.859375 0.335938 C 19.027344 0.335938 24.277344 -2.5625 25.410156 -8.652344 Z M 25.410156 -8.652344"/></g><g id="h"><path d="M 10.960938 -16.003906 L 7.476562 -11.84375 L 7.476562 -29.398438 L 3.359375 -29.398438 L 3.359375 0 L 7.476562 0 L 7.476562 -6.929688 L 10.414062 -10.078125 L 18.058594 0 L 22.804688 0 L 22.804688 -0.378906 L 13.0625 -12.9375 L 22.21875 -22.722656 L 17.261719 -22.722656 Z M 10.960938 -16.003906"/></g><g id="v"><path d="M 32.777344 -23.585938 L 32.777344 -53.992188 L 6.816406 -53.992188 L 6.816406 -41.96875 L 19.757812 -41.96875 L 19.757812 -23.585938 C 19.757812 -15.316406 15.546875 -12.253906 1.378906 -12.253906 L 1.378906 0 C 24.199219 0 32.777344 -6.507812 32.777344 -23.585938 Z M 32.777344 -23.585938"/></g><g id="w"><path d="M 45.644531 0 L 45.644531 -53.609375 L 32.546875 -53.609375 L 32.546875 -33.390625 L 16.925781 -33.390625 L 16.925781 -53.609375 L 3.828125 -53.609375 L 3.828125 0 L 16.925781 0 L 16.925781 -20.753906 L 32.546875 -20.753906 L 32.546875 0 Z M 45.644531 0"/></g><clipPath id="a"><path d="M 113.914062 64.371094 L 260.914062 64.371094 L 260.914062 212.121094 L 113.914062 212.121094 Z M 113.914062 64.371094"/></clipPath></defs><g clip-path="url(#a)"><path fill="#FFF" d="M 260.859375 132.5625 C 260.863281 132.511719 260.855469 132.457031 260.835938 132.410156 C 260.835938 132.40625 260.839844 132.402344 260.835938 132.402344 L 246.1875 93.871094 C 246.183594 93.867188 246.179688 93.863281 246.175781 93.859375 C 246.152344 93.800781 246.121094 93.746094 246.066406 93.707031 L 213.851562 68.039062 C 213.800781 68 213.742188 67.96875 213.671875 67.957031 C 213.667969 67.957031 213.664062 67.957031 213.660156 67.957031 L 187.363281 64.375 C 187.3125 64.367188 187.257812 64.371094 187.207031 64.386719 L 174.671875 67.953125 L 174.316406 67.953125 C 174.246094 67.953125 174.175781 67.972656 174.117188 68.007812 L 173.796875 68.199219 L 142.949219 76.984375 C 142.941406 76.984375 142.933594 76.992188 142.925781 76.996094 C 142.882812 77.011719 142.847656 77.035156 142.8125 77.0625 C 142.796875 77.074219 142.785156 77.085938 142.773438 77.097656 C 142.765625 77.105469 142.757812 77.109375 142.75 77.117188 L 115.738281 112.242188 C 115.726562 112.25 115.726562 112.261719 115.71875 112.273438 C 115.710938 112.289062 115.699219 112.304688 115.691406 112.320312 C 115.6875 112.332031 115.683594 112.34375 115.679688 112.355469 C 115.675781 112.375 115.671875 112.394531 115.667969 112.417969 C 115.664062 112.429688 115.660156 112.441406 115.65625 112.453125 L 113.957031 143.34375 C 113.957031 143.371094 113.957031 143.398438 113.960938 143.425781 L 116.453125 159.046875 C 116.453125 159.070312 116.464844 159.085938 116.472656 159.105469 C 116.476562 159.121094 116.476562 159.132812 116.480469 159.144531 C 116.480469 159.148438 116.484375 159.152344 116.484375 159.15625 C 116.488281 159.160156 116.488281 159.164062 116.488281 159.167969 L 129.066406 183.160156 C 129.089844 183.203125 129.117188 183.238281 129.152344 183.269531 L 143.902344 196.332031 C 143.925781 196.359375 143.953125 196.382812 143.984375 196.402344 L 161.039062 207.914062 C 161.085938 207.945312 161.140625 207.96875 161.195312 207.976562 L 187.957031 212.144531 L 187.960938 212.144531 C 187.964844 212.144531 187.964844 212.144531 187.96875 212.144531 C 187.988281 212.148438 188.007812 212.148438 188.027344 212.148438 C 188.054688 212.148438 188.082031 212.148438 188.105469 212.140625 C 188.105469 212.140625 188.105469 212.140625 188.109375 212.140625 C 188.109375 212.140625 188.109375 212.140625 188.113281 212.140625 C 188.113281 212.140625 188.117188 212.140625 188.117188 212.136719 C 188.121094 212.140625 188.121094 212.136719 188.121094 212.136719 C 188.121094 212.136719 188.125 212.136719 188.125 212.136719 C 188.125 212.136719 188.128906 212.136719 188.128906 212.136719 C 188.128906 212.132812 188.128906 212.132812 188.132812 212.132812 L 231.863281 199.335938 C 231.878906 199.328125 231.886719 199.3125 231.902344 199.304688 C 231.945312 199.289062 231.976562 199.261719 232.011719 199.230469 C 232.023438 199.21875 232.046875 199.214844 232.058594 199.195312 L 258.664062 164.054688 C 258.707031 164 258.726562 163.933594 258.734375 163.871094 C 258.734375 163.863281 258.742188 163.855469 258.742188 163.847656 Z M 257.992188 163.515625 L 246.488281 166.429688 L 259.9375 134.789062 Z M 211.304688 159.035156 L 168.90625 144.09375 L 200.882812 121.027344 Z M 200.886719 119.785156 L 169 98.894531 L 210.457031 87.011719 Z M 200.429688 120.40625 L 168.46875 143.457031 L 168.46875 99.46875 Z M 167.699219 143.59375 L 131.425781 125.761719 L 167.699219 99.507812 Z M 175.554688 186.339844 L 140.976562 166.933594 L 167.824219 144.921875 Z M 168.585938 144.796875 L 211.070312 159.769531 L 176.347656 186.394531 Z M 211.539062 160.386719 L 213.777344 192.21875 L 177.042969 186.832031 Z M 212.03125 158.765625 L 201.628906 120.832031 L 237.003906 124.371094 Z M 237.496094 125.003906 L 245.339844 166.496094 L 212.53125 159.390625 Z M 245.96875 165.675781 L 238.214844 124.65625 L 259.964844 132.757812 Z M 237.550781 123.167969 L 211.914062 87.039062 L 245.351562 94.300781 Z M 236.90625 123.585938 L 201.609375 120.054688 L 211.171875 87.320312 Z M 168.589844 98.207031 L 174.59375 68.90625 L 209.957031 86.355469 Z M 167.792969 98.25 L 140.664062 89.164062 L 173.761719 69.125 Z M 167.25 98.882812 L 131.308594 124.894531 L 140.027344 89.765625 Z M 130.464844 125.101562 L 116.601562 112.464844 L 139.050781 90.492188 Z M 139.410156 89.0625 L 119.6875 108.367188 L 142.15625 79.15625 Z M 130.222656 125.925781 L 117.183594 157.140625 L 116.441406 113.363281 Z M 130.578125 127.074219 L 139.761719 166.40625 L 117.34375 158.753906 Z M 131.242188 126.527344 L 167.375 144.292969 L 140.53125 166.304688 Z M 175.082031 186.960938 L 144.515625 195.585938 L 140.78125 167.710938 Z M 175.875 187.539062 L 187.269531 211.082031 L 145.460938 196.121094 Z M 188.171875 211.179688 L 176.746094 187.566406 L 213.203125 192.917969 Z M 214.527344 191.90625 L 212.292969 160.128906 L 244.960938 167.203125 Z M 244.832031 168.300781 L 231.546875 198.480469 L 214.96875 192.539062 Z M 246.105469 167.324219 L 257.390625 164.464844 L 233.433594 196.109375 Z M 238.171875 123.816406 L 245.890625 95.253906 L 259.8125 131.878906 Z M 213.894531 69.058594 L 244.296875 93.28125 L 211.453125 86.148438 Z M 187.339844 65.148438 L 207.917969 67.953125 L 177.492188 67.953125 Z M 213.164062 68.722656 L 210.714844 85.867188 L 175.96875 68.722656 Z M 140.382812 88.433594 L 143.371094 77.664062 L 171.296875 69.714844 Z M 114.726562 143.34375 L 115.835938 123.175781 L 116.351562 153.542969 Z M 129.714844 182.738281 L 119.507812 163.269531 L 141.714844 193.367188 Z M 117.871094 159.75 L 139.945312 167.28125 L 143.613281 194.640625 Z M 146.941406 197.46875 L 184.066406 210.757812 L 161.398438 207.226562 Z M 214.257812 193.101562 L 230.507812 198.925781 L 190.039062 210.773438 Z M 214.257812 193.101562"/></g><g fill="#FFF"><use x="94.781" y="272.292" xmlns:xlink="http://www.w3.org/1999/xlink" xlink:href="#b" xlink:type="simple" xlink:actuate="onLoad" xlink:show="embed"/></g><g fill="#FFF"><use x="113.891" y="272.292" xmlns:xlink="http://www.w3.org/1999/xlink" xlink:href="#c" xlink:type="simple" xlink:actuate="onLoad" xlink:show="embed"/></g><g fill="#FFF"><use x="143.039" y="272.292" xmlns:xlink="http://www.w3.org/1999/xlink" xlink:href="#d" xlink:type="simple" xlink:actuate="onLoad" xlink:show="embed"/><use x="171.641" y="272.292" xmlns:xlink="http://www.w3.org/1999/xlink" xlink:href="#e" xlink:type="simple" xlink:actuate="onLoad" xlink:show="embed"/></g><g fill="#FFF"><use x="199.823" y="272.292" xmlns:xlink="http://www.w3.org/1999/xlink" xlink:href="#f" xlink:type="simple" xlink:actuate="onLoad" xlink:show="embed"/></g><g fill="#FFF"><use x="229.307" y="272.292" xmlns:xlink="http://www.w3.org/1999/xlink" xlink:href="#g" xlink:type="simple" xlink:actuate="onLoad" xlink:show="embed"/></g><g fill="#FFF"><use x="256.817" y="272.292" xmlns:xlink="http://www.w3.org/1999/xlink" xlink:href="#h" xlink:type="simple" xlink:actuate="onLoad" xlink:show="embed"/></g><g fill="#FFF"><use x="96.67" y="307.963" xmlns:xlink="http://www.w3.org/1999/xlink" xlink:href="#i" xlink:type="simple" xlink:actuate="onLoad" xlink:show="embed"/></g><g fill="#FFF"><use x="105.625" y="307.963" xmlns:xlink="http://www.w3.org/1999/xlink" xlink:href="#j" xlink:type="simple" xlink:actuate="onLoad" xlink:show="embed"/></g><g fill="#FFF"><use x="117.826" y="307.963" xmlns:xlink="http://www.w3.org/1999/xlink" xlink:href="#k" xlink:type="simple" xlink:actuate="onLoad" xlink:show="embed"/></g><g fill="#FFF"><use x="130.37" y="307.963" xmlns:xlink="http://www.w3.org/1999/xlink" xlink:href="#l" xlink:type="simple" xlink:actuate="onLoad" xlink:show="embed"/></g><g fill="#FFF"><use x="136.913" y="307.963" xmlns:xlink="http://www.w3.org/1999/xlink" xlink:href="#m" xlink:type="simple" xlink:actuate="onLoad" xlink:show="embed"/></g><g fill="#FFF"><use x="149.677" y="307.963" xmlns:xlink="http://www.w3.org/1999/xlink" xlink:href="#n" xlink:type="simple" xlink:actuate="onLoad" xlink:show="embed"/></g><g fill="#FFF"><use x="161.376" y="307.963" xmlns:xlink="http://www.w3.org/1999/xlink" xlink:href="#o" xlink:type="simple" xlink:actuate="onLoad" xlink:show="embed"/></g><g fill="#FFF"><use x="167.38" y="307.963" xmlns:xlink="http://www.w3.org/1999/xlink" xlink:href="#p" xlink:type="simple" xlink:actuate="onLoad" xlink:show="embed"/></g><g fill="#FFF"><use x="179.715" y="307.963" xmlns:xlink="http://www.w3.org/1999/xlink" xlink:href="#q" xlink:type="simple" xlink:actuate="onLoad" xlink:show="embed"/></g><g fill="#FFF"><use x="190.593" y="307.963" xmlns:xlink="http://www.w3.org/1999/xlink" xlink:href="#r" xlink:type="simple" xlink:actuate="onLoad" xlink:show="embed"/></g><g fill="#FFF"><use x="201.888" y="307.963" xmlns:xlink="http://www.w3.org/1999/xlink" xlink:href="#o" xlink:type="simple" xlink:actuate="onLoad" xlink:show="embed"/></g><g fill="#FFF"><use x="207.892" y="307.963" xmlns:xlink="http://www.w3.org/1999/xlink" xlink:href="#i" xlink:type="simple" xlink:actuate="onLoad" xlink:show="embed"/></g><g fill="#FFF"><use x="216.848" y="307.963" xmlns:xlink="http://www.w3.org/1999/xlink" xlink:href="#m" xlink:type="simple" xlink:actuate="onLoad" xlink:show="embed"/></g><g fill="#FFF"><use x="229.612" y="307.963" xmlns:xlink="http://www.w3.org/1999/xlink" xlink:href="#s" xlink:type="simple" xlink:actuate="onLoad" xlink:show="embed"/></g><g fill="#FFF"><use x="241.102" y="307.963" xmlns:xlink="http://www.w3.org/1999/xlink" xlink:href="#o" xlink:type="simple" xlink:actuate="onLoad" xlink:show="embed"/></g><g fill="#FFF"><use x="247.106" y="307.963" xmlns:xlink="http://www.w3.org/1999/xlink" xlink:href="#t" xlink:type="simple" xlink:actuate="onLoad" xlink:show="embed"/></g><g fill="#FFF"><use x="258.989" y="307.963" xmlns:xlink="http://www.w3.org/1999/xlink" xlink:href="#u" xlink:type="simple" xlink:actuate="onLoad" xlink:show="embed"/></g><g fill="#FFF"><use x="270.075" y="307.963" xmlns:xlink="http://www.w3.org/1999/xlink" xlink:href="#u" xlink:type="simple" xlink:actuate="onLoad" xlink:show="embed"/></g><g fill="#FFF"><use x="143.999" y="164.113" xmlns:xlink="http://www.w3.org/1999/xlink" xlink:href="#v" xlink:type="simple" xlink:actuate="onLoad" xlink:show="embed"/></g><g fill="#FFF"><use x="180.759" y="164.113" xmlns:xlink="http://www.w3.org/1999/xlink" xlink:href="#w" xlink:type="simple" xlink:actuate="onLoad" xlink:show="embed"/></g></svg>