<svg width="726" height="705" viewBox="0 0 726 705" fill="none" xmlns="http://www.w3.org/2000/svg">
<g clip-path="url(#clip0_6_564)">
<path d="M509.496 702.62C508.736 703.42 507.947 704.21 507.147 705H415.98C415.231 704.23 414.491 703.44 413.752 702.62C413.722 702.59 413.692 702.55 413.662 702.52C403.757 691.542 397.521 675.585 393.634 658.758C393.384 657.738 393.164 656.708 392.944 655.668C391.925 650.939 391.095 646.16 390.416 641.421C390.296 640.601 390.176 639.781 390.076 638.961C389.156 632.152 388.536 625.454 388.137 619.165C388.087 618.355 388.037 617.565 387.987 616.775C387.255 604.255 387.248 591.703 387.967 579.181C387.967 579.181 388.087 579.181 388.317 579.191C388.986 579.221 390.595 579.291 392.964 579.431C399.49 579.831 411.803 580.831 426.284 583.191C427.074 583.321 427.874 583.461 428.673 583.601C440.922 585.625 453.005 588.553 464.822 592.359C465.562 592.609 466.291 592.859 467.031 593.109L467.041 593.159L476.106 638.661L479.864 598.158C482.852 599.508 485.76 600.948 488.549 602.487C489.328 602.917 490.088 603.347 490.837 603.787C497.212 607.401 502.998 611.966 507.997 617.325C537.73 650.289 531.363 679.754 509.496 702.62Z" fill="#F2F2F2"/>
<path d="M471.398 644.922L472.978 646.674C491.247 667.129 502.15 686.115 505.509 703.383C505.562 703.634 505.599 703.884 505.652 704.135L504.483 704.357L503.357 704.555C499.929 685.728 487.165 666.266 471.235 648.421C470.728 647.841 470.212 647.252 469.679 646.679C462.869 639.184 455.547 631.994 448.144 625.271C447.575 624.746 446.99 624.22 446.405 623.694C436.588 614.87 426.71 606.888 417.901 600.16C417.281 599.681 416.652 599.211 416.03 598.749C401.074 587.421 389.469 579.913 386.882 578.267C386.571 578.061 386.394 577.953 386.354 577.926L386.966 576.948L386.967 576.931L387.588 575.946C387.628 575.973 388.222 576.334 389.294 577.034C393.32 579.63 404.141 586.776 417.603 596.935C418.208 597.396 418.837 597.867 419.457 598.345C426.612 603.798 434.436 610.046 442.338 616.885C444.326 618.6 446.264 620.312 448.153 622.021C448.746 622.54 449.331 623.066 449.9 623.591C457.904 630.857 465.07 637.968 471.398 644.922Z" fill="white"/>
<path d="M427.144 581.251C426.874 581.901 426.585 582.551 426.284 583.191C424.002 588.133 421.082 592.755 417.6 596.938C417.09 597.538 416.57 598.148 416.031 598.748C414.572 600.358 413.019 601.914 411.373 603.417C404.639 609.516 396.659 614.074 387.987 616.775C387.707 616.865 387.437 616.955 387.157 617.035C387.207 617.825 387.257 618.605 387.307 619.415C387.587 619.335 387.857 619.255 388.137 619.165C397.339 616.389 405.808 611.601 412.932 605.147C414.674 603.572 416.333 601.907 417.9 600.158C418.439 599.568 418.959 598.958 419.459 598.348C423.183 593.872 426.282 588.911 428.673 583.601C428.953 582.961 429.233 582.321 429.503 581.671C428.703 581.531 427.914 581.391 427.144 581.251Z" fill="white"/>
<path d="M465.232 590.59C465.112 591.179 464.972 591.769 464.822 592.359C462.112 603.599 456.342 613.867 448.152 622.024C447.582 622.594 447.002 623.154 446.403 623.694C446.233 623.864 446.043 624.044 445.863 624.204C438.413 630.933 429.462 635.783 419.758 638.35C410.054 640.917 399.877 641.126 390.076 638.961C389.846 638.921 389.606 638.861 389.376 638.811C389.496 639.631 389.606 640.461 389.736 641.281C389.966 641.331 390.186 641.381 390.416 641.421C400.466 643.501 410.865 643.183 420.769 640.492C430.673 637.801 439.804 632.814 447.422 625.934C447.662 625.714 447.912 625.504 448.142 625.274C448.742 624.714 449.321 624.154 449.901 623.594C458.283 615.203 464.21 604.678 467.041 593.159C467.191 592.559 467.331 591.959 467.461 591.359C466.721 591.099 465.981 590.839 465.232 590.59Z" fill="white"/>
<path d="M488.548 600.798C488.558 601.358 488.558 601.928 488.548 602.487C488.381 618.289 482.256 633.444 471.398 644.92C470.839 645.52 470.259 646.1 469.68 646.68C469.05 647.29 468.42 647.9 467.77 648.48C457.716 657.545 445.016 663.137 431.543 664.431C418.071 665.726 404.539 662.654 392.944 655.668C392.745 655.565 392.552 655.451 392.364 655.328C392.604 656.388 392.844 657.428 393.104 658.468C393.284 658.568 393.453 658.668 393.633 658.758C405.564 665.413 419.277 668.168 432.851 666.637C446.425 665.106 459.18 659.365 469.33 650.219C469.979 649.629 470.629 649.039 471.238 648.42C471.838 647.85 472.407 647.27 472.977 646.67C483.989 635.052 490.345 619.79 490.837 603.787C490.857 603.247 490.867 602.707 490.867 602.167C490.108 601.698 489.328 601.248 488.548 600.798Z" fill="white"/>
<path d="M286.501 165.55H110.817C109.355 165.548 107.954 164.967 106.92 163.932C105.886 162.898 105.305 161.496 105.303 160.033V26.581C105.305 25.1183 105.886 23.716 106.92 22.6817C107.954 21.6474 109.355 21.0656 110.817 21.0638H326.46C327.922 21.0656 329.324 21.6474 330.357 22.6817C331.391 23.716 331.973 25.1183 331.974 26.581V120.058C331.961 132.119 327.165 143.682 318.64 152.211C310.115 160.739 298.557 165.536 286.501 165.55Z" fill="white"/>
<path d="M286.501 166.05H110.817C109.223 166.048 107.694 165.413 106.567 164.286C105.439 163.158 104.805 161.628 104.803 160.033V26.581C104.805 24.9858 105.439 23.4564 106.567 22.3284C107.694 21.2004 109.223 20.5658 110.817 20.5639H326.46C328.054 20.5657 329.583 21.2003 330.711 22.3283C331.838 23.4564 332.472 24.9857 332.474 26.581V120.058C332.46 132.251 327.612 143.942 318.993 152.564C310.375 161.186 298.689 166.036 286.501 166.05V166.05ZM110.817 22.5636C109.753 22.5649 108.732 22.9886 107.979 23.7417C107.227 24.4949 106.803 25.5159 106.802 26.581V160.033C106.803 161.098 107.227 162.119 107.979 162.872C108.732 163.625 109.753 164.049 110.817 164.05H286.501C298.159 164.037 309.337 159.398 317.581 151.151C325.825 142.903 330.462 131.721 330.475 120.058V26.581C330.474 25.5159 330.05 24.4949 329.298 23.7417C328.545 22.9886 327.524 22.5649 326.46 22.5636H110.817Z" fill="#CCCCCC"/>
<path d="M283.833 66.1332H153.444C152.247 66.1332 151.099 65.6575 150.253 64.8107C149.406 63.9639 148.931 62.8154 148.931 61.6179C148.931 60.4203 149.406 59.2718 150.253 58.4251C151.099 57.5783 152.247 57.1026 153.444 57.1026H283.833C285.029 57.1043 286.175 57.5809 287.02 58.4274C287.865 59.274 288.339 60.4215 288.339 61.6179C288.339 62.8142 287.865 63.9617 287.02 64.8083C286.175 65.6549 285.029 66.1314 283.833 66.1332V66.1332Z" fill="#CCCCCC"/>
<path d="M283.833 97.2386H153.444C152.247 97.2386 151.099 96.7629 150.253 95.9161C149.406 95.0693 148.931 93.9208 148.931 92.7233C148.931 91.5258 149.406 90.3773 150.253 89.5305C151.099 88.6837 152.247 88.208 153.444 88.208H283.833C285.03 88.208 286.178 88.6837 287.024 89.5305C287.871 90.3773 288.346 91.5258 288.346 92.7233C288.346 93.9208 287.871 95.0693 287.024 95.9161C286.178 96.7629 285.03 97.2386 283.833 97.2386Z" fill="#CCCCCC"/>
<path d="M283.833 129.233H153.444C152.247 129.233 151.099 128.757 150.253 127.911C149.406 127.064 148.931 125.915 148.931 124.718C148.931 123.52 149.406 122.372 150.253 121.525C151.099 120.678 152.247 120.203 153.444 120.203H283.833C285.03 120.203 286.178 120.678 287.024 121.525C287.871 122.372 288.346 123.52 288.346 124.718C288.346 125.915 287.871 127.064 287.024 127.911C286.178 128.757 285.03 129.233 283.833 129.233Z" fill="#CCCCCC"/>
<path d="M324.841 53.9278C339.726 53.9278 351.794 41.8556 351.794 26.9639C351.794 12.0721 339.726 -1.52588e-05 324.841 -1.52588e-05C309.955 -1.52588e-05 297.888 12.0721 297.888 26.9639C297.888 41.8556 309.955 53.9278 324.841 53.9278Z" fill="#FF914D"/>
<path d="M321.164 40.9974C320.698 40.9974 320.239 40.8889 319.823 40.6806C319.407 40.4724 319.045 40.1699 318.766 39.7974L311.413 29.989C311.176 29.6739 311.004 29.3153 310.907 28.9338C310.809 28.5522 310.787 28.1552 310.843 27.7652C310.899 27.3753 311.031 27.0002 311.231 26.6613C311.432 26.3224 311.697 26.0263 312.012 25.79C312.327 25.5537 312.686 25.3818 313.067 25.284C313.448 25.1863 313.845 25.1646 314.235 25.2204C314.625 25.2761 315 25.408 315.339 25.6087C315.677 25.8094 315.973 26.0749 316.21 26.39L321.02 32.8064L333.376 14.2656C333.817 13.6037 334.503 13.1442 335.282 12.9882C336.062 12.8322 336.872 12.9924 337.534 13.4337C338.195 13.875 338.654 14.5611 338.81 15.3411C338.966 16.1212 338.806 16.9313 338.365 17.5932L323.659 39.6616C323.393 40.0608 323.035 40.3903 322.615 40.6225C322.196 40.8548 321.727 40.983 321.247 40.9964C321.22 40.9969 321.192 40.9974 321.164 40.9974Z" fill="white"/>
<path d="M221.657 281.459H45.9732C33.9171 281.446 22.3586 276.648 13.8336 268.12C5.30862 259.591 0.513308 248.028 0.499706 235.967V142.49C0.501423 141.027 1.08301 139.625 2.11687 138.591C3.15073 137.556 4.55246 136.974 6.01456 136.973H221.657C223.119 136.974 224.52 137.556 225.554 138.591C226.588 139.625 227.17 141.027 227.171 142.49V275.942C227.17 277.405 226.588 278.807 225.554 279.842C224.52 280.876 223.119 281.458 221.657 281.459V281.459Z" fill="white"/>
<path d="M221.657 281.959H45.9732C33.7846 281.945 22.0992 277.095 13.4806 268.473C4.8619 259.851 0.0138543 248.161 -3.8147e-06 235.967V142.49C0.00180285 140.895 0.636061 139.365 1.76362 138.237C2.89117 137.109 4.41995 136.475 6.01456 136.473H221.657C223.251 136.475 224.78 137.109 225.908 138.237C227.035 139.365 227.669 140.895 227.671 142.49V275.942C227.669 277.537 227.035 279.067 225.908 280.195C224.78 281.323 223.251 281.957 221.657 281.959ZM6.01456 138.472C4.94992 138.474 3.92925 138.897 3.17643 139.651C2.42361 140.404 2.00012 141.425 1.99883 142.49V235.967C2.012 247.631 6.64923 258.813 14.8932 267.06C23.1371 275.307 34.3145 279.946 45.9732 279.96H221.657C222.721 279.958 223.742 279.535 224.495 278.782C225.248 278.028 225.671 277.007 225.672 275.942V142.49C225.671 141.425 225.248 140.404 224.495 139.651C223.742 138.897 222.721 138.474 221.657 138.472H6.01456Z" fill="#CCCCCC"/>
<path d="M179.03 182.042H48.6414C47.4443 182.042 46.2963 181.566 45.4498 180.72C44.6034 179.873 44.1279 178.724 44.1279 177.527C44.1279 176.329 44.6034 175.181 45.4498 174.334C46.2963 173.487 47.4443 173.012 48.6414 173.012H179.03C180.227 173.012 181.375 173.487 182.221 174.334C183.068 175.181 183.543 176.329 183.543 177.527C183.543 178.724 183.068 179.873 182.221 180.72C181.375 181.566 180.227 182.042 179.03 182.042Z" fill="#CCCCCC"/>
<path d="M179.03 213.148H48.6414C47.4443 213.148 46.2963 212.672 45.4498 211.825C44.6034 210.978 44.1279 209.83 44.1279 208.632C44.1279 207.435 44.6034 206.286 45.4498 205.439C46.2963 204.593 47.4443 204.117 48.6414 204.117H179.03C180.227 204.117 181.375 204.593 182.221 205.439C183.068 206.286 183.543 207.435 183.543 208.632C183.543 209.83 183.068 210.978 182.221 211.825C181.375 212.672 180.227 213.148 179.03 213.148Z" fill="#CCCCCC"/>
<path d="M179.03 245.142H48.6414C47.4443 245.142 46.2963 244.666 45.4498 243.82C44.6034 242.973 44.1279 241.824 44.1279 240.627C44.1279 239.429 44.6034 238.281 45.4498 237.434C46.2963 236.587 47.4443 236.112 48.6414 236.112H179.03C180.227 236.112 181.375 236.587 182.221 237.434C183.068 238.281 183.543 239.429 183.543 240.627C183.543 241.824 183.068 242.973 182.221 243.82C181.375 244.666 180.227 245.142 179.03 245.142Z" fill="#CCCCCC"/>
<path d="M221.901 170.908C236.786 170.908 248.854 158.836 248.854 143.944C248.854 129.052 236.786 116.98 221.901 116.98C207.015 116.98 194.948 129.052 194.948 143.944C194.948 158.836 207.015 170.908 221.901 170.908Z" fill="#FF914D"/>
<path d="M218.224 157.977C217.758 157.977 217.299 157.869 216.883 157.661C216.467 157.452 216.105 157.15 215.826 156.777L208.472 146.969C208.236 146.654 208.064 146.295 207.967 145.914C207.869 145.532 207.847 145.135 207.903 144.745C207.959 144.355 208.091 143.98 208.291 143.641C208.492 143.302 208.757 143.006 209.072 142.77C209.387 142.534 209.746 142.362 210.127 142.264C210.508 142.166 210.905 142.145 211.295 142.2C211.685 142.256 212.06 142.388 212.398 142.589C212.737 142.789 213.033 143.055 213.269 143.37L218.08 149.786L230.436 131.246C230.877 130.584 231.563 130.124 232.342 129.968C233.122 129.812 233.932 129.972 234.593 130.414C235.255 130.855 235.714 131.541 235.87 132.321C236.026 133.101 235.866 133.911 235.425 134.573L220.719 156.642C220.453 157.041 220.095 157.37 219.675 157.603C219.256 157.835 218.787 157.963 218.307 157.976C218.279 157.977 218.252 157.977 218.224 157.977Z" fill="white"/>
<path d="M440.554 405.851H194.733C182.677 405.838 171.118 401.04 162.593 392.512C154.068 383.983 149.273 372.42 149.259 360.359V222.869C149.261 220.983 150.011 219.176 151.344 217.842C152.676 216.509 154.483 215.759 156.368 215.757H440.554C442.438 215.759 444.245 216.509 445.578 217.843C446.91 219.176 447.66 220.983 447.662 222.869V398.739C447.66 400.625 446.91 402.432 445.578 403.766C444.245 405.099 442.438 405.849 440.554 405.851V405.851Z" fill="white"/>
<path d="M440.554 406.351H194.733C182.544 406.337 170.859 401.487 162.24 392.865C153.621 384.243 148.773 372.553 148.76 360.359V222.869C148.762 220.851 149.564 218.916 150.991 217.489C152.417 216.062 154.351 215.26 156.368 215.257H440.554C442.571 215.26 444.504 216.062 445.931 217.489C447.357 218.916 448.159 220.851 448.161 222.869V398.739C448.159 400.757 447.357 402.692 445.931 404.119C444.505 405.546 442.571 406.349 440.554 406.351V406.351ZM156.368 217.257C154.881 217.259 153.455 217.85 152.403 218.902C151.352 219.955 150.76 221.381 150.758 222.869V360.359C150.772 372.022 155.409 383.204 163.653 391.452C171.897 399.699 183.074 404.338 194.733 404.351H440.554C442.041 404.35 443.467 403.758 444.518 402.705C445.57 401.653 446.161 400.227 446.163 398.739V222.869C446.161 221.381 445.57 219.955 444.518 218.903C443.466 217.85 442.041 217.259 440.554 217.257H156.368Z" fill="#CCCCCC"/>
<path d="M384.377 274.993H212.544C211.762 274.994 210.988 274.841 210.265 274.542C209.543 274.244 208.886 273.805 208.333 273.253C207.78 272.7 207.341 272.044 207.042 271.321C206.742 270.599 206.588 269.824 206.588 269.042C206.588 268.26 206.742 267.486 207.042 266.763C207.341 266.041 207.78 265.385 208.333 264.832C208.886 264.279 209.543 263.841 210.265 263.543C210.988 263.244 211.762 263.091 212.544 263.092H384.377C385.159 263.091 385.933 263.244 386.656 263.543C387.378 263.841 388.035 264.279 388.588 264.832C389.141 265.385 389.58 266.041 389.879 266.763C390.179 267.486 390.333 268.26 390.333 269.042C390.333 269.824 390.179 270.599 389.879 271.321C389.58 272.044 389.141 272.7 388.588 273.253C388.035 273.805 387.378 274.244 386.656 274.542C385.933 274.841 385.159 274.994 384.377 274.993Z" fill="#CCCCCC"/>
<path d="M384.377 315.985H212.544C211.762 315.986 210.988 315.833 210.265 315.535C209.543 315.236 208.886 314.798 208.333 314.245C207.78 313.692 207.341 313.036 207.042 312.314C206.742 311.591 206.588 310.817 206.588 310.035C206.588 309.253 206.742 308.478 207.042 307.756C207.341 307.033 207.78 306.377 208.333 305.824C208.886 305.272 209.543 304.834 210.265 304.535C210.988 304.236 211.762 304.083 212.544 304.084H384.377C385.955 304.084 387.468 304.711 388.583 305.827C389.699 306.943 390.325 308.457 390.325 310.035C390.325 311.613 389.699 313.126 388.583 314.242C387.468 315.358 385.955 315.985 384.377 315.985Z" fill="#CCCCCC"/>
<path d="M384.377 358.149H212.544C210.966 358.149 209.454 357.523 208.338 356.407C207.223 355.291 206.596 353.777 206.596 352.199C206.596 350.621 207.223 349.107 208.338 347.991C209.454 346.875 210.966 346.248 212.544 346.248H384.377C385.159 346.247 385.933 346.401 386.656 346.699C387.378 346.998 388.035 347.436 388.588 347.989C389.141 348.541 389.58 349.198 389.879 349.92C390.179 350.642 390.333 351.417 390.333 352.199C390.333 352.981 390.179 353.755 389.879 354.478C389.58 355.2 389.141 355.857 388.588 356.409C388.035 356.962 387.378 357.4 386.656 357.699C385.933 357.997 385.159 358.15 384.377 358.149Z" fill="#CCCCCC"/>
<path d="M441.446 260.654C460.29 260.654 475.565 245.372 475.565 226.521C475.565 207.669 460.29 192.388 441.446 192.388C422.603 192.388 407.327 207.669 407.327 226.521C407.327 245.372 422.603 260.654 441.446 260.654Z" fill="#FF914D"/>
<path d="M436.792 244.285C436.203 244.285 435.621 244.148 435.095 243.884C434.568 243.621 434.109 243.238 433.756 242.766L424.448 230.35C424.149 229.951 423.931 229.497 423.807 229.014C423.684 228.531 423.656 228.029 423.727 227.535C423.797 227.041 423.964 226.566 424.218 226.137C424.472 225.708 424.808 225.334 425.207 225.035C425.606 224.735 426.059 224.518 426.542 224.394C427.025 224.27 427.527 224.243 428.021 224.313C428.514 224.384 428.989 224.551 429.418 224.805C429.847 225.059 430.221 225.395 430.52 225.794L436.61 233.916L452.251 210.446C452.81 209.61 453.677 209.029 454.664 208.833C455.65 208.636 456.674 208.839 457.511 209.397C458.348 209.955 458.929 210.823 459.127 211.809C459.325 212.796 459.123 213.82 458.566 214.658L439.95 242.594C439.613 243.1 439.16 243.517 438.629 243.811C438.098 244.105 437.504 244.267 436.897 244.284C436.862 244.285 436.827 244.285 436.792 244.285Z" fill="white"/>
<path d="M529.837 677.75L515.956 682.394L491.443 631.04L511.931 624.185L529.837 677.75Z" fill="#FFB6B6"/>
<path d="M537.877 690.027L493.118 702.002L492.929 701.436C491.372 696.78 491.721 694.796 493.912 690.404C494.983 688.241 496.472 686.311 498.294 684.728C500.115 683.144 502.232 681.937 504.523 681.178L504.524 681.177L510.625 672.237L527.954 673.338L531.862 672.031L537.877 690.027Z" fill="#2F2E41"/>
<path d="M564.133 690.807H549.496L542.532 634.327L564.135 634.328L564.133 690.807Z" fill="#FFB6B6"/>
<path d="M567.865 702.002L520.669 702V701.403C520.67 696.494 522.581 694.879 526.051 691.408C527.753 689.696 529.777 688.339 532.006 687.415C534.236 686.491 536.626 686.019 539.039 686.025H539.041L547.662 679.482L563.746 686.027L567.866 686.027L567.865 702.002Z" fill="#2F2E41"/>
<path d="M452.736 238.275C453.037 239.809 453.671 241.259 454.593 242.521C455.515 243.784 456.702 244.829 458.071 245.582C459.441 246.336 460.958 246.78 462.518 246.884C464.077 246.987 465.64 246.747 467.097 246.181L483.995 263.83L497.22 256.173L473.007 231.585C471.894 229.199 469.945 227.306 467.529 226.262C465.114 225.218 462.4 225.098 459.901 225.922C457.402 226.747 455.293 228.46 453.972 230.737C452.651 233.014 452.211 235.696 452.736 238.275V238.275Z" fill="#FFB6B6"/>
<path d="M562.094 327.016L569.711 319.132L525.659 278.315L481.322 238.71L469.042 256.069L515.504 299.456L562.094 327.016Z" fill="#E4E4E4"/>
<path d="M535.026 594.872C535.026 584.963 535.222 577.896 535.38 572.216C535.841 555.596 535.965 551.128 529.607 522.506L527.974 515.155L518.345 544.054C515.269 553.273 513.698 562.927 513.69 572.645L528.537 661.762H498.193L475.968 565.418L475.958 535.948C474 533.921 472.905 531.212 472.905 528.393C472.905 525.574 474 522.865 475.958 520.838L483.341 476.687L490.815 417.184H572.675C572.675 417.184 587.121 447.141 572.764 476.856L572.763 594.909L565.345 676.535H542.446L535.026 594.872Z" fill="#2F2E41"/>
<path d="M567.67 424.386L491.101 418.003L490.704 417.97L496.814 307.935C497.173 301.017 499.6 294.365 503.78 288.842C507.96 283.319 513.701 279.178 520.259 276.955V269.254C520.261 267.348 521.019 265.521 522.366 264.173C523.713 262.826 525.54 262.068 527.445 262.066H538.633C539.968 262.061 541.278 262.431 542.414 263.133C543.55 263.836 544.467 264.842 545.06 266.039L550.53 276.985L571.217 293.541C581.434 301.718 573.211 383.702 572.769 388.028L577.772 413.055C578.047 414.431 578.013 415.852 577.674 417.214C577.335 418.576 576.698 419.847 575.81 420.933C574.922 422.02 573.804 422.897 572.536 423.499C571.269 424.102 569.884 424.417 568.481 424.421C568.212 424.42 567.942 424.408 567.67 424.386Z" fill="#E4E4E4"/>
<path d="M486.584 453.439C487.795 452.45 488.774 451.208 489.452 449.8C490.131 448.391 490.493 446.851 490.512 445.288C490.531 443.725 490.208 442.176 489.564 440.751C488.92 439.327 487.972 438.06 486.787 437.042L494.383 413.815L481.4 405.754L471.133 438.706C469.554 440.812 468.803 443.424 469.021 446.047C469.24 448.67 470.412 451.122 472.317 452.938C474.221 454.755 476.726 455.809 479.355 455.901C481.985 455.993 484.557 455.117 486.584 453.439V453.439Z" fill="#FFB6B6"/>
<path d="M513.286 295.538L502.745 292.022L487.52 359.979L473.497 427.561L494.588 430.665L510.943 358.807L513.286 295.538Z" fill="#E4E4E4"/>
<path d="M524.797 255.032C538.686 255.032 549.945 243.769 549.945 229.874C549.945 215.98 538.686 204.717 524.797 204.717C510.909 204.717 499.65 215.98 499.65 229.874C499.65 243.769 510.909 255.032 524.797 255.032Z" fill="#FFB6B6"/>
<path d="M490.961 217.554C491.193 215.17 491.876 212.851 492.974 210.722C494.15 213.28 497.817 213.724 500.326 212.451C502.836 211.178 504.518 208.76 506.311 206.592C511.044 200.868 517.553 196.226 524.929 195.38C532.306 194.535 540.437 198.26 543.224 205.144C544.474 203.407 547.143 203.214 549.031 204.223C550.854 205.374 552.277 207.06 553.104 209.051C554.961 212.862 556.01 217.015 556.186 221.251C556.362 225.486 555.661 229.712 554.127 233.664C551.021 241.527 543.35 252.122 535.437 255.089C530.632 256.891 525.779 254.585 520.669 255.089C520.937 249.51 522.018 242.627 522.286 237.048C522.432 233.993 522.454 230.575 520.368 228.338C519.728 227.73 518.962 227.271 518.125 226.992C517.288 226.713 516.4 226.621 515.524 226.724C514.647 226.826 513.804 227.12 513.054 227.584C512.304 228.048 511.664 228.672 511.182 229.411C510.923 227.676 510.338 226.007 509.456 224.491C509.004 223.739 508.351 223.129 507.57 222.729C506.79 222.329 505.913 222.155 505.039 222.227C502.906 222.577 501.588 224.768 499.63 225.685C498.518 226.131 497.296 226.227 496.128 225.959C494.961 225.691 493.903 225.072 493.096 224.186C492.312 223.282 491.719 222.228 491.352 221.088C490.986 219.948 490.853 218.746 490.961 217.554V217.554Z" fill="#2F2E41"/>
<path opacity="0.1" d="M528.053 358.502L498.519 417.594H520.67L528.053 358.502Z" fill="black"/>
<path d="M726 703.81C726.001 703.967 725.97 704.122 725.91 704.266C725.851 704.411 725.763 704.542 725.653 704.653C725.542 704.763 725.411 704.851 725.266 704.91C725.122 704.97 724.967 705 724.811 705H160.849C160.534 705 160.231 704.875 160.008 704.652C159.785 704.428 159.66 704.126 159.66 703.81C159.66 703.495 159.785 703.192 160.008 702.969C160.231 702.746 160.534 702.62 160.849 702.62H724.811C724.967 702.62 725.122 702.65 725.266 702.71C725.411 702.77 725.542 702.857 725.653 702.968C725.763 703.078 725.851 703.21 725.911 703.354C725.97 703.499 726.001 703.654 726 703.81V703.81Z" fill="#CACACA"/>
</g>
<defs>
<clipPath id="clip0_6_564">
<rect width="726" height="705" fill="white"/>
</clipPath>
</defs>
</svg>
